# xmcd
#
# Track frame offsets:
# 150
# 22317
# 42800
# 54622
# 77285
# 95227
# 108582
# 123215
# 147337
# 167215
# 181234
# 191685
# 211402
# 232957
#
# Disc length: 3236 seconds
#
#
# Revision: 2
# Processed by: cddbd v1.5PL3 Copyright (c) Steve Scherf et al.
# Submitted via: FreeRIP 2.30 
#
DISCID=c20ca20e
DTITLE=Keith Frank - Movin' On Up!
DYEAR=1900
DGENRE=
TTITLE0=Have Mercy
TTITLE1=Watch My Step/Movin' On Up
TTITLE2=Bernadette C'est My 'Tit Creole
TTITLE3=Rebel
TTITLE4=I Don't Want To Hear It
TTITLE5=One More Time
TTITLE6=Anybody Wanta Party?
TTITLE7=Pieces To My Heart
TTITLE8=Cookin' In The Kitchen
TTITLE9=All You Do
TTITLE10=Mr. Sneaky
TTITLE11=Twist and Turn
TTITLE12=Take It To The Highway
TTITLE13=Boogie Woogie Zydeco
EXTD=
EXTT0=
EXTT1=
EXTT2=
EXTT3=
EXTT4=
EXTT5=
EXTT6=
EXTT7=
EXTT8=
EXTT9=
EXTT10=
EXTT11=
EXTT12=
EXTT13=
PLAYORDER=
